<svg width="155" height="25" viewBox="0 0 155 25" fill="none" xmlns="http://www.w3.org/2000/svg">
<path d="M15.8196 24.6007L10.3439 16.0576H10.246V24.6007H0V0H10.246V15.7924H10.3439L15.3181 7.98043H26.8525L20.1944 15.5918L27.2358 24.6007H15.8196Z" fill="#282828"/>
<path d="M39.1051 18.9529C39.1016 19.1713 39.158 19.3872 39.2694 19.5824C39.3808 19.7776 39.544 19.9464 39.7452 20.0746C40.2764 20.3963 40.9159 20.5504 41.5596 20.5117C42.5141 20.5486 43.4473 20.2567 44.1608 19.6983C44.4884 19.4358 44.7477 19.1141 44.9208 18.7554C45.0939 18.3967 45.1768 18.0094 45.1638 17.6199V16.9856L41.6982 17.3153C39.9654 17.5088 39.1051 18.0499 39.1051 18.9529ZM45.1638 24.6005V22.0741H45.066C43.4351 24.0236 40.9358 24.9983 37.568 24.9983C35.2467 24.9983 33.4269 24.5336 32.1086 23.6043C31.4702 23.162 30.9593 22.5938 30.6172 21.9457C30.2751 21.2977 30.1114 20.5879 30.1393 19.8739C30.1393 16.6081 33.1116 14.7172 39.0562 14.2012L45.172 13.6637C45.172 13.119 44.8105 12.6723 44.0874 12.3235C43.1839 11.9369 42.184 11.757 41.1804 11.8003C38.1864 11.8453 35.229 12.3863 32.4633 13.3949V8.90841C34.0942 8.46084 35.767 8.14067 37.462 7.95161C39.167 7.72749 40.8876 7.60775 42.6115 7.59326C46.7866 7.59326 49.8241 8.19529 51.7037 9.40651C53.5833 10.6177 54.5292 12.6316 54.5292 15.4447V24.6148L45.1638 24.6005Z" fill="#282828"/>
<path d="M73.3816 24.6004V15.5234C73.3816 14.4937 73.1546 13.7555 72.7007 13.3088C72.2399 12.8609 71.502 12.6315 70.4745 12.6315C70.0945 12.6128 69.7144 12.6654 69.3593 12.7859C69.0043 12.9064 68.6825 13.092 68.4155 13.3303C67.908 13.8179 67.6399 14.4617 67.6694 15.1221V24.6075H57.4233V7.97657H67.6694V10.571H67.7672C68.6224 9.59311 69.7579 8.83254 71.0575 8.36717C72.4744 7.83455 74.0015 7.5661 75.5425 7.5788C80.9244 7.5788 83.6167 9.87224 83.6194 14.4591V24.6004H73.3816Z" fill="#282828"/>
<path d="M105.641 24.3677C104.897 24.573 104.132 24.7158 103.357 24.7941C102.09 24.9438 100.812 25.012 99.533 24.9984C96.6817 24.9984 94.4487 24.468 92.8341 23.4073C91.2196 22.3466 90.415 20.8379 90.4204 18.8813V12.7643H86.5308V7.97679H90.4204V4.70865L100.52 2.82373V7.97679H105.641V12.7643H100.52V17.7525C100.52 19.2146 101.379 19.9456 103.096 19.9456C103.96 19.9385 104.818 19.8177 105.641 19.5873V24.3677Z" fill="#282828"/>
<path d="M117.509 18.9529C117.505 19.1713 117.562 19.3872 117.673 19.5824C117.785 19.7776 117.948 19.9464 118.149 20.0746C118.68 20.3963 119.32 20.5504 119.963 20.5117C120.918 20.5486 121.851 20.2567 122.565 19.6983C122.892 19.4358 123.151 19.1141 123.325 18.7554C123.498 18.3967 123.581 18.0094 123.568 17.6199V16.9856L120.102 17.3153C118.369 17.5088 117.509 18.0499 117.509 18.9529ZM123.568 24.6005V22.0741H123.466C121.835 24.0236 119.337 24.9983 115.972 24.9983C113.648 24.9983 111.828 24.5336 110.512 23.6043C109.874 23.162 109.363 22.5938 109.021 21.9457C108.679 21.2977 108.515 20.5879 108.543 19.8739C108.543 16.6081 111.515 14.7172 117.46 14.2012L123.576 13.6637C123.576 13.119 123.214 12.6723 122.491 12.3235C121.588 11.9369 120.588 11.757 119.584 11.8003C116.59 11.8453 113.633 12.3863 110.867 13.3949V8.90841C112.498 8.46084 114.171 8.14067 115.866 7.95161C117.569 7.72765 119.289 7.60791 121.011 7.59326C125.192 7.59326 128.224 8.19768 130.107 9.40651C131.987 10.607 132.933 12.6316 132.933 15.4447V24.6148L123.568 24.6005Z" fill="#282828"/>
<path d="M154.347 13.8968C153.839 13.7502 153.318 13.6423 152.789 13.5742C152.251 13.4905 151.705 13.4426 151.158 13.4309C147.774 13.4309 146.084 14.7448 146.086 17.3727V24.5827H135.828V7.97683H146.074V10.9045H146.172C146.759 9.88154 147.69 9.04206 148.839 8.50002C150.086 7.93352 151.475 7.65135 152.879 7.67939C153.377 7.67058 153.874 7.73601 154.347 7.87291V13.8968Z" fill="#282828"/>
</svg>
